<?xml version="1.0" encoding="iso-8859-1"?>
<!-- Generator: Adobe Illustrator 19.0.0, SVG Export Plug-In . SVG Version: 6.00 Build 0)  -->
<svg version="1.1" id="Capa_1" xmlns="http://www.w3.org/2000/svg" xmlns:xlink="http://www.w3.org/1999/xlink" x="0px" y="0px"
	 viewBox="0 0 452.963 452.963" style="enable-background:new 0 0 452.963 452.963;" xml:space="preserve">
<path style="fill:#4DCFE0;" d="M226.482,104.49c-28.735,0-52.245-23.51-52.245-52.245S197.747,0,226.482,0
	s52.245,23.51,52.245,52.245S255.216,104.49,226.482,104.49z M226.482,31.347c-11.494,0-20.898,9.404-20.898,20.898
	s9.404,20.898,20.898,20.898s20.898-9.404,20.898-20.898S237.976,31.347,226.482,31.347z"/>
<g>
	<path style="fill:#1185E0;" d="M117.29,308.245H85.943v-91.429c0-78.367,63.216-142.106,140.539-142.106
		S367.02,138.449,367.02,216.816v89.339h-31.347v-89.339c0-61.127-49.11-110.759-109.192-110.759S117.29,155.69,117.29,216.816
		V308.245z"/>
	<path style="fill:#1185E0;" d="M226.482,452.963c-40.229,0-72.62-32.392-72.62-72.62h31.347c0,22.988,18.286,41.273,41.273,41.273
		s41.273-18.286,41.273-41.273h31.347C299.102,420.571,266.71,452.963,226.482,452.963z"/>
</g>
<path style="fill:#4DCFE0;" d="M396.278,396.016H56.686c-8.882,0-15.673-6.792-15.673-15.673v-72.098
	c0-8.882,6.792-15.673,15.673-15.673h339.592c8.882,0,15.673,6.792,15.673,15.673v72.098
	C411.951,389.224,405.159,396.016,396.278,396.016z M72.359,364.669h308.245v-40.751H72.359V364.669z"/>
<g>
</g>
<g>
</g>
<g>
</g>
<g>
</g>
<g>
</g>
<g>
</g>
<g>
</g>
<g>
</g>
<g>
</g>
<g>
</g>
<g>
</g>
<g>
</g>
<g>
</g>
<g>
</g>
<g>
</g>
</svg>
