<?xml version="1.0" encoding="iso-8859-1"?>
<!-- Generator: Adobe Illustrator 19.0.0, SVG Export Plug-In . SVG Version: 6.00 Build 0)  -->
<svg version="1.1" id="Capa_1" xmlns="http://www.w3.org/2000/svg" xmlns:xlink="http://www.w3.org/1999/xlink" x="0px" y="0px"
	 viewBox="0 0 458.71 458.71" style="enable-background:new 0 0 458.71 458.71;" xml:space="preserve">
<g>
	<path style="fill:#4DCFE0;" d="M453.486,17.241C453.486,16.718,453.486,16.718,453.486,17.241c-0.522-1.045-1.045-2.09-1.567-2.612
		c-0.522-1.045-1.045-1.567-2.09-2.612c-0.522-0.522-1.567-1.567-2.612-2.09c0-0.522-1.045-0.522-1.567-1.045
		c-0.522,0-0.522-0.522-1.045-0.522c-0.522-0.522-1.567-0.522-2.09-0.522c-0.522,0-0.522,0-1.045,0c-1.045,0-2.09-0.522-3.135-0.522
		l0,0L301.975,8.359c-8.882,0-15.673,7.314-15.673,15.673s7.314,15.673,15.673,15.673l98.743-0.522L291.004,148.898
		c-6.269,6.269-6.269,16.196,0,21.943c3.135,3.135,7.314,4.702,10.971,4.702s7.837-1.567,10.971-4.702L422.661,61.127l-0.522,98.743
		c0,8.882,6.792,15.673,15.673,15.673l0,0c8.359,0,15.673-6.792,15.673-15.673l1.045-136.882l0,0
		C454.531,20.898,454.008,18.808,453.486,17.241z"/>
	<path style="fill:#4DCFE0;" d="M175.543,16.718c0-8.882-6.792-15.673-15.673-15.673L22.988,0l0,0c-1.045,0-2.09,0-3.135,0.522
		c-0.522,0-0.522,0-1.045,0c-0.522,0-1.567,0.522-2.09,0.522c-0.522,0-0.522,0.522-1.045,0.522c0,0.522-1.045,0.522-1.567,1.045
		c-0.522,0.522-1.567,1.045-2.09,2.09c-1.045,0.522-1.567,1.567-2.09,2.09c-0.522,1.045-1.045,2.09-1.045,2.612c0,0,0,0,0,0.522
		c-1.045,1.567-1.567,3.657-1.567,5.747l0,0l1.045,136.882c0,8.359,7.314,15.673,15.673,15.673l0,0
		c8.882,0,15.673-7.314,15.673-15.673l-0.522-98.743l109.714,109.714c3.135,3.135,7.314,4.702,10.971,4.702
		c3.657,0,7.837-1.567,10.971-4.702c6.269-6.269,6.269-16.196,0-21.943L61.126,31.869l98.743,0.522
		C168.751,32.392,175.543,25.6,175.543,16.718z"/>
</g>
<g>
	<path style="fill:#1185E0;" d="M454.531,441.992L454.531,441.992l-1.045-136.882c0-8.359-7.314-15.673-15.673-15.673l0,0
		c-8.882,0-15.673,7.314-15.673,15.673l0.522,98.743L312.947,294.139c-6.269-6.269-16.196-6.269-21.943,0
		c-6.269,6.269-6.269,16.196,0,21.943l109.714,109.714l-98.743-0.522c-8.359,0-15.673,6.792-15.673,15.673
		s6.792,15.673,15.673,15.673l136.882,1.045l0,0c1.045,0,2.09,0,3.135-0.522c0.522,0,0.522,0,1.045-0.522
		c0.522,0,1.567-0.522,2.09-0.522s0.522-0.522,1.045-0.522c0.522-0.522,1.045-0.522,1.567-1.045c1.045-0.522,1.567-1.045,2.612-2.09
		c0.522-0.522,1.567-1.567,2.09-2.612C453.486,448.261,454.531,445.127,454.531,441.992z"/>
	<path style="fill:#1185E0;" d="M167.706,294.139c-6.269-6.269-16.196-6.269-21.943,0L36.049,403.853l0.522-98.743
		c0-8.882-6.792-15.673-15.673-15.673c-8.359,0-15.673,6.792-15.673,15.673L4.18,441.992l0,0c0,3.135,1.045,6.269,2.612,8.882
		c0.522,1.045,1.045,1.567,2.09,2.612c0.522,0.522,1.567,1.567,2.612,2.09c0.522,0.522,1.045,0.522,1.567,1.045
		c0.522,0,0.522,0.522,1.045,0.522c0.522,0.522,1.567,0.522,2.09,0.522c0.522,0,0.522,0,1.045,0.522c1.045,0,2.09,0.522,3.135,0.522
		l0,0l136.882-1.045c8.882,0,15.673-7.314,15.673-15.673c0-8.359-7.314-15.673-15.673-15.673l0,0l-98.743,0.522l109.714-109.714
		C173.975,309.812,173.975,299.886,167.706,294.139z"/>
</g>
<g>
</g>
<g>
</g>
<g>
</g>
<g>
</g>
<g>
</g>
<g>
</g>
<g>
</g>
<g>
</g>
<g>
</g>
<g>
</g>
<g>
</g>
<g>
</g>
<g>
</g>
<g>
</g>
<g>
</g>
</svg>
