<?xml version="1.0" encoding="iso-8859-1"?>
<!-- Generator: Adobe Illustrator 19.0.0, SVG Export Plug-In . SVG Version: 6.00 Build 0)  -->
<svg version="1.1" id="Capa_1" xmlns="http://www.w3.org/2000/svg" xmlns:xlink="http://www.w3.org/1999/xlink" x="0px" y="0px"
	 viewBox="0 0 484.833 484.833" style="enable-background:new 0 0 484.833 484.833;" xml:space="preserve">
<path style="fill:#1185E0;" d="M336.718,0H156.996c-4.18,0-8.359,1.567-10.971,4.702L39.967,110.759
	c-3.135,3.135-4.702,6.792-4.702,10.971v261.224c0,8.882,6.792,15.673,15.673,15.673h149.943c8.882,0,15.673-6.792,15.673-15.673
	s-6.792-15.673-15.673-15.673H66.612V137.404h90.384c8.882,0,15.673-6.792,15.673-15.673V31.347h148.376V234.58
	c0,8.882,6.792,15.673,15.673,15.673c8.882,0,15.673-6.792,15.673-15.673V15.673C352.392,6.792,345.6,0,336.718,0z M88.555,106.057
	l52.767-52.767v52.767H88.555z"/>
<g>
	<path style="fill:#4DCFE0;" d="M259.396,204.8H128.261c-8.882,0-15.673-6.792-15.673-15.673s6.792-15.673,15.673-15.673h131.135
		c8.882,0,15.673,6.792,15.673,15.673S268.278,204.8,259.396,204.8z"/>
	<path style="fill:#4DCFE0;" d="M259.396,267.494H128.261c-8.882,0-15.673-6.792-15.673-15.673c0-8.882,6.792-15.673,15.673-15.673
		h131.135c8.882,0,15.673,6.792,15.673,15.673C275.069,260.702,268.278,267.494,259.396,267.494z"/>
</g>
<path style="fill:#1185E0;" d="M444.865,458.188l-42.841-42.318c9.927-14.629,16.196-31.869,16.196-50.678
	c0-49.11-39.706-88.816-88.816-88.816s-88.816,39.706-88.816,88.816s39.706,88.816,88.816,88.816
	c18.808,0,36.571-5.747,50.678-16.196l42.841,42.318c3.135,3.135,6.792,4.702,10.971,4.702c4.18,0,7.837-1.567,10.971-4.702
	C451.135,473.861,451.135,463.935,444.865,458.188z M271.935,365.192c0-31.869,25.6-57.469,57.469-57.469s57.469,25.6,57.469,57.469
	s-25.6,57.469-57.469,57.469S271.935,397.061,271.935,365.192z"/>
<g>
</g>
<g>
</g>
<g>
</g>
<g>
</g>
<g>
</g>
<g>
</g>
<g>
</g>
<g>
</g>
<g>
</g>
<g>
</g>
<g>
</g>
<g>
</g>
<g>
</g>
<g>
</g>
<g>
</g>
</svg>
