<?xml version="1.0" encoding="iso-8859-1"?>
<!-- Generator: Adobe Illustrator 19.0.0, SVG Export Plug-In . SVG Version: 6.00 Build 0)  -->
<svg version="1.1" id="Capa_1" xmlns="http://www.w3.org/2000/svg" xmlns:xlink="http://www.w3.org/1999/xlink" x="0px" y="0px"
	 viewBox="0 0 421.094 421.094" style="enable-background:new 0 0 421.094 421.094;" xml:space="preserve">
<path style="fill:#1185E0;" d="M336.457,116.506V15.673H305.11v92.996l-94.563,75.233l-94.563-75.233V15.673H84.637v100.833
	c0,4.702,2.09,9.404,5.747,12.539l99.788,78.89l-99.788,78.89c-3.657,3.135-5.747,7.314-5.747,12.539V405.42h31.347V307.2
	l94.563-75.233l94.563,74.71v98.22h31.347V299.363c0-4.702-2.09-9.404-5.747-12.539l-100.31-78.89l100.31-78.89
	C334.367,125.91,336.457,121.208,336.457,116.506z"/>
<g>
	<path style="fill:#4DCFE0;" d="M368.849,31.347H52.245c-8.882,0-15.673-6.792-15.673-15.673S43.363,0,52.245,0h316.604
		c8.882,0,15.673,6.792,15.673,15.673S377.731,31.347,368.849,31.347z"/>
	<path style="fill:#4DCFE0;" d="M368.849,421.094H52.245c-8.882,0-15.673-6.792-15.673-15.673s6.792-15.673,15.673-15.673h316.604
		c8.882,0,15.673,6.792,15.673,15.673S377.731,421.094,368.849,421.094z"/>
</g>
<g>
</g>
<g>
</g>
<g>
</g>
<g>
</g>
<g>
</g>
<g>
</g>
<g>
</g>
<g>
</g>
<g>
</g>
<g>
</g>
<g>
</g>
<g>
</g>
<g>
</g>
<g>
</g>
<g>
</g>
</svg>
