<?xml version="1.0" encoding="iso-8859-1"?>
<!-- Generator: Adobe Illustrator 19.0.0, SVG Export Plug-In . SVG Version: 6.00 Build 0)  -->
<svg version="1.1" id="Capa_1" xmlns="http://www.w3.org/2000/svg" xmlns:xlink="http://www.w3.org/1999/xlink" x="0px" y="0px"
	 viewBox="0 0 405.447 405.447" style="enable-background:new 0 0 405.447 405.447;" xml:space="preserve">
<path style="fill:#1185E0;" d="M202.201,50.181c-50.678,0-92.473,21.943-121.731,49.11L82.038,15.7
	c0-8.882-6.792-15.673-15.151-15.673c-8.882-0.522-15.673,6.792-15.673,15.151l-2.09,125.388c0,4.18,1.567,8.359,4.702,11.494
	c3.135,3.135,6.792,4.702,11.494,4.702l122.253-2.09c8.882,0,15.673-7.314,15.151-16.196c0-8.882-6.792-15.673-16.196-15.151
	l-86.204,1.567c24.033-22.988,59.559-42.841,102.4-42.841c87.249,0,145.763,75.233,145.763,145.763
	c0,87.249-75.233,146.286-145.763,146.286c-61.127,0-145.763-50.678-145.763-146.286c0-8.882-6.792-15.673-15.673-15.673
	s-15.673,6.792-15.673,15.673c0,41.273,17.763,86.204,47.543,119.118c33.959,37.616,79.935,58.514,129.567,58.514
	c106.057,0,177.11-91.951,177.11-177.633C379.311,141.61,308.258,50.181,202.201,50.181z"/>
<g>
</g>
<g>
</g>
<g>
</g>
<g>
</g>
<g>
</g>
<g>
</g>
<g>
</g>
<g>
</g>
<g>
</g>
<g>
</g>
<g>
</g>
<g>
</g>
<g>
</g>
<g>
</g>
<g>
</g>
</svg>
