<?xml version="1.0" encoding="iso-8859-1"?>
<!-- Generator: Adobe Illustrator 19.0.0, SVG Export Plug-In . SVG Version: 6.00 Build 0)  -->
<svg version="1.1" id="Capa_1" xmlns="http://www.w3.org/2000/svg" xmlns:xlink="http://www.w3.org/1999/xlink" x="0px" y="0px"
	 viewBox="0 0 429.453 429.453" style="enable-background:new 0 0 429.453 429.453;" xml:space="preserve">
<path style="fill:#1185E0;" d="M214.727,429.453C96.131,429.453,0,333.322,0,214.727S96.131,0,214.727,0
	s214.727,96.131,214.727,214.727S333.322,429.453,214.727,429.453z M214.727,31.347c-101.355,0-183.38,82.024-183.38,183.38
	s82.024,183.38,183.38,183.38s183.38-82.024,183.38-183.38S316.082,31.347,214.727,31.347z"/>
<path style="fill:#4DCFE0;" d="M287.869,246.073h-83.592c-8.882,0-15.673-6.792-15.673-15.673V120.686
	c0-8.882,6.792-15.673,15.673-15.673s15.673,6.792,15.673,15.673v94.041h67.918c8.882,0,15.673,6.792,15.673,15.673
	S296.751,246.073,287.869,246.073z"/>
<g>
</g>
<g>
</g>
<g>
</g>
<g>
</g>
<g>
</g>
<g>
</g>
<g>
</g>
<g>
</g>
<g>
</g>
<g>
</g>
<g>
</g>
<g>
</g>
<g>
</g>
<g>
</g>
<g>
</g>
</svg>
